<?xml version="1.0" encoding="UTF-8" standalone="no"?>
<svg
   xmlns:dc="http://purl.org/dc/elements/1.1/"
   xmlns:cc="http://creativecommons.org/ns#"
   xmlns:rdf="http://www.w3.org/1999/02/22-rdf-syntax-ns#"
   xmlns:svg="http://www.w3.org/2000/svg"
   xmlns="http://www.w3.org/2000/svg"
   xmlns:sodipodi="http://sodipodi.sourceforge.net/DTD/sodipodi-0.dtd"
   xmlns:inkscape="http://www.inkscape.org/namespaces/inkscape"
   viewBox="0 0 225.00001 225"
   id="svg4095"
   version="1.1"
   inkscape:version="0.91 r13725"
   sodipodi:docname="simulateuremprunt.svg"
   width="225"
   height="225"
   inkscape:export-filename="/home/thibault/gipilab/simulateurs_emprunt_placement/simulateur-emprunts/www/icons/simulateuremprunt-36.png"
   inkscape:export-xdpi="14.4"
   inkscape:export-ydpi="14.4">
  <metadata
     id="metadata4125">
    <rdf:RDF>
      <cc:Work
         rdf:about="">
        <dc:format>image/svg+xml</dc:format>
        <dc:type
           rdf:resource="http://purl.org/dc/dcmitype/StillImage" />
        <dc:title></dc:title>
        <cc:license
           rdf:resource="http://creativecommons.org/licenses/by-nc-sa/3.0/" />
        <dc:creator>
          <cc:Agent>
            <dc:title />
          </cc:Agent>
        </dc:creator>
        <dc:rights>
          <cc:Agent>
            <dc:title>Laboratoire de Recherche pour le Développement Local</dc:title>
          </cc:Agent>
        </dc:rights>
      </cc:Work>
      <cc:License
         rdf:about="http://creativecommons.org/licenses/by-nc-sa/3.0/">
        <cc:permits
           rdf:resource="http://creativecommons.org/ns#Reproduction" />
        <cc:permits
           rdf:resource="http://creativecommons.org/ns#Distribution" />
        <cc:requires
           rdf:resource="http://creativecommons.org/ns#Notice" />
        <cc:requires
           rdf:resource="http://creativecommons.org/ns#Attribution" />
        <cc:prohibits
           rdf:resource="http://creativecommons.org/ns#CommercialUse" />
        <cc:permits
           rdf:resource="http://creativecommons.org/ns#DerivativeWorks" />
        <cc:requires
           rdf:resource="http://creativecommons.org/ns#ShareAlike" />
      </cc:License>
    </rdf:RDF>
  </metadata>
  <defs
     id="defs4123">
    <filter
       inkscape:label="Drop Shadow"
       inkscape:menu="Materials"
       inkscape:menu-tooltip="Metallized effect with a soft lighting, slightly translucent at the edges"
       style="color-interpolation-filters:sRGB"
       id="filter7512">
      <feGaussianBlur
         stdDeviation="1"
         result="result1"
         id="feGaussianBlur7514" />
      <feComposite
         in="result1"
         in2="result1"
         result="result4"
         operator="in"
         id="feComposite7516" />
      <feBlend
         in="result1"
         mode="screen"
         result="result5"
         in2="result4"
         id="feBlend7518" />
      <feGaussianBlur
         stdDeviation="8"
         result="result6"
         in="result5"
         id="feGaussianBlur7520" />
      <feComposite
         operator="atop"
         in="result6"
         in2="result5"
         result="result8"
         id="feComposite7522" />
      <feComposite
         operator="in"
         result="fbSourceGraphic"
         in="result6"
         in2="result8"
         id="feComposite7524" />
      <feGaussianBlur
         result="result0"
         in="fbSourceGraphic"
         stdDeviation="2.5"
         id="feGaussianBlur7526" />
      <feSpecularLighting
         specularExponent="45"
         specularConstant="1.5"
         surfaceScale="1"
         lighting-color="#ffffff"
         result="result1"
         in="result0"
         id="feSpecularLighting7528">
        <fePointLight
           z="21000"
           y="-9000"
           x="-6000"
           id="fePointLight7530" />
      </feSpecularLighting>
      <feComposite
         operator="in"
         result="result2"
         in="result1"
         in2="fbSourceGraphic"
         id="feComposite7532" />
      <feComposite
         k3="1"
         k2="1"
         operator="arithmetic"
         result="result4"
         in="fbSourceGraphic"
         in2="result2"
         id="feComposite7534"
         k1="0"
         k4="0" />
      <feComposite
         operator="in"
         in2="result4"
         result="result91"
         id="feComposite7536" />
      <feBlend
         mode="multiply"
         in2="result91"
         id="feBlend7538"
         result="fbSourceGraphic" />
      <feColorMatrix
         result="fbSourceGraphicAlpha"
         in="fbSourceGraphic"
         values="0 0 0 -1 0 0 0 0 -1 0 0 0 0 -1 0 0 0 0 1 0"
         id="feColorMatrix7564" />
      <feFlood
         id="feFlood7566"
         flood-opacity="0.498039"
         flood-color="rgb(0,0,0)"
         result="flood"
         in="fbSourceGraphic" />
      <feComposite
         id="feComposite7568"
         in2="fbSourceGraphic"
         in="flood"
         operator="in"
         result="composite1" />
      <feGaussianBlur
         id="feGaussianBlur7570"
         in="composite1"
         stdDeviation="2.6"
         result="blur" />
      <feOffset
         id="feOffset7572"
         dx="6"
         dy="6"
         result="offset" />
      <feComposite
         id="feComposite7574"
         in2="offset"
         in="fbSourceGraphic"
         operator="over"
         result="composite2" />
    </filter>
  </defs>
  <sodipodi:namedview
     pagecolor="#ffffff"
     bordercolor="#666666"
     borderopacity="1"
     objecttolerance="10"
     gridtolerance="10"
     guidetolerance="10"
     inkscape:pageopacity="0"
     inkscape:pageshadow="2"
     inkscape:window-width="1440"
     inkscape:window-height="844"
     id="namedview4121"
     showgrid="false"
     inkscape:zoom="0.98206392"
     inkscape:cx="-172.46367"
     inkscape:cy="21.770259"
     inkscape:window-x="0"
     inkscape:window-y="11"
     inkscape:window-maximized="1"
     inkscape:current-layer="svg4095"
     fit-margin-top="0"
     fit-margin-left="0"
     fit-margin-right="0"
     fit-margin-bottom="0" />
  <path
     d="m 45.291779,60.49663 c -10.583332,9.25708 -8.326945,21.46698 -8.473467,32.31948 1.120476,6.07618 0.330965,13.60652 7.814419,18.08041 5.956614,1.2174 12.840122,0.75192 18.986842,0.32179 3.668462,-2.239 1.047266,-6.36489 1.094848,-9.24604 -1.464928,-9.73162 -7.016161,-19.99345 -2.130494,-29.60975 1.704485,-3.83962 6.08755,-7.04666 7.783036,-10.71953 -2.057643,-2.33251 -7.835307,-0.8917 -11.266572,-1.42793 -4.476993,0.16668 -9.805109,-0.43835 -13.808612,0.28157 z"
     id="path4099"
     inkscape:connector-curvature="0"
     style="fill:#ffffff" />
  <path
     d="m 162.35115,81.01055 c -3.96586,-0.4389 -9.81034,1.30925 -7.50059,4.34413 5.52205,4.97626 16.63681,5.5629 25.48284,5.65499 6.68239,0.48083 9.55299,-6.46961 2.98173,-7.94773 -6.52068,-1.68972 -13.96434,-2.05452 -20.96398,-2.05139 z"
     id="path4101"
     inkscape:connector-curvature="0"
     style="fill:#f4d4c4" />
  <path
     d="m 191.47477,65.22287 c -8.48383,1.49134 -16.83342,5.22949 -20.9326,10.3173 -1.99621,3.19581 5.34258,4.87451 9.1639,3.94189 7.90112,-0.98551 18.78412,-3.76754 18.92407,-9.83462 -0.28071,-2.29837 -3.26758,-4.68975 -7.15537,-4.42457 z"
     id="path4103"
     inkscape:connector-curvature="0"
     style="fill:#f4d4c4" />
  <path
     d="m 184.35078,49.33464 c -6.87193,1.47006 -13.22961,4.67845 -17.198,8.54747 -2.74448,3.11606 3.833,6.19523 8.2224,4.36423 6.34832,-1.74903 15.27981,-3.9987 16.2565,-8.96981 -0.12981,-2.37478 -3.61677,-4.23484 -7.2809,-3.94189 z"
     id="path4105"
     inkscape:connector-curvature="0"
     style="fill:#f4d4c4" />
  <path
     d="m 163.79478,91.62952 c -5.58641,-0.96417 -9.88884,4.34116 -4.51918,6.21451 5.79507,1.45447 12.90543,1.25363 18.79854,0.181 4.52076,-1.33568 2.32965,-6.21047 -2.66757,-6.07372 -3.82297,-0.42632 -7.7471,-0.34823 -11.61179,-0.32179 z"
     id="path4107"
     inkscape:connector-curvature="0"
     style="fill:#f4d4c4" />
  <path
     d="m 121.01946,49.83743 c -16.34874,0.76424 -28.94811,8.22096 -40.452953,14.92287 -4.827732,1.59438 -12.039433,1.62561 -13.463397,5.73184 -3.514619,7.4218 -4.658936,16.17377 0.847346,23.30944 3.060642,4.14999 10.235285,6.34954 17.260766,5.24916 6.885948,-0.56469 17.552988,-2.19337 16.852788,-7.92401 -1.48921,-3.40388 -7.93221,-5.69199 -9.57188,-8.38657 3.42634,-0.0805 7.6448,1.40606 9.91709,-1.10615 8.6119,-5.3116 16.50776,-13.95811 30.19065,-13.21338 11.673,1.02484 21.32396,7.12634 33.23482,7.36088 6.93558,-0.68736 10.01793,-6.49823 5.08408,-9.75417 -11.34718,-8.69886 -28.36512,-14.82717 -46.00779,-16.14969 -1.29402,-0.0649 -2.59487,-0.0819 -3.89152,-0.0402 z"
     id="path4109"
     inkscape:connector-curvature="0"
     style="fill:#e9c6af" />
  <path
     d="m 120.625,80.990466 c -6.77211,3.649234 -9.16415,10.70468 -11.1875,16.612814 -3.96189,10.16498 -0.3158,22.34992 -8.6875,31.22352 -2.9206,2.45092 -0.15321,-5.11437 -0.16,-6.94146 0.96772,-7.05233 5.46742,-14.35334 4.035,-21.42189 -2.79821,-2.204257 -4.60874,2.86272 -6.15195,4.01158 -18.13426,24.20754 -38.04671,48.54662 -45.8793,76.04933 -1.04518,12.09981 -1.89619,24.61261 2.03125,36.46716 5.576,15.0131 19.50675,28.32885 38.875,34.01219 12.06046,4.39505 25.45092,4.71955 38.5625,4.02807 32.96813,0.49426 62.08528,-19.7059 68.53532,-43.81292 5.91654,-22.38317 3.61875,-46.64882 -10.22282,-67.13782 -5.8037,-8.66712 -11.79159,-18.00461 -21.53125,-24.35911 -5.31956,-2.11195 -10.04859,1.66227 -13.03125,4.50477 -4.61471,1.92398 -8.62893,-3.03564 -10.1875,-5.74418 -5.23782,-7.55476 -4.90945,-17.51916 -13.1875,-23.715567 -4.24332,-1.178074 -4.77527,4.138066 -5.5625,6.149357 -0.82494,2.48146 -1.03125,6.36573 -2.34375,8.10382 -2.79893,-9.075869 0.33656,-18.832288 -2.5,-27.838986 -0.43215,-0.200325 -0.91329,-0.266262 -1.40625,-0.190678 z"
     id="path4111"
     inkscape:connector-curvature="0"
     style="fill:#c87137;stroke:#000000;stroke-width:6.98667049;filter:url(#filter7512)"
     transform="matrix(1.0042627,0,0,0.84379716,5.9999997,2.8565201)" />
  <path
     d="M 172.99006,6.3961781 C 165.98366,7.3749318 161.4623,14.203285 153.31279,11.766 145.5299,10.596349 138.37942,6.9841411 130.30889,7.0799758 c -5.76652,1.3452881 -4.40535,6.4302962 -7.43782,8.7686972 -6.75833,1.202911 -16.32801,-0.825809 -21.1209,3.237983 -1.85174,2.090746 1.96028,3.492386 4.92681,2.872791 7.50017,-0.04817 16.07018,-0.51937 21.34094,3.58306 5.20694,3.312598 12.85897,0.721788 16.75863,-2.292732 2.55826,-1.143457 6.05127,-3.986157 9.10113,-3.579881 -4.86888,5.588881 -14.81705,7.820018 -23.3491,10.337409 -4.08515,2.60168 -1.58522,6.955927 -0.59629,10.075957 2.20923,3.86202 4.82303,9.35172 11.92562,10.23685 5.37142,-0.17696 4.08768,-4.8854 4.20535,-7.2201 3.72234,4.73575 4.58562,11.95652 13.11819,14.21897 7.9598,1.08567 12.35085,-4.30393 13.50534,-8.54536 0.73286,-5.57203 6.43671,-9.69176 11.71995,-13.83709 4.55081,-4.604608 10.47954,-9.210211 12.05796,-14.643174 -1.53632,-2.549795 -7.12031,-0.408509 -8.85007,1.025697 -4.93234,2.346831 -7.32674,7.34475 -10.41922,9.653611 -3.35544,-4.262121 -13.09121,-1.680797 -15.09533,2.01117 -2.09649,4.166876 -2.93898,-1.894252 -3.60906,-3.579882 -1.29114,-1.89333 0.32873,-3.525956 3.48353,-3.559769 9.98911,-1.828677 19.76708,-5.507508 25.85977,-10.900536 1.17775,-3.774054 -5.33615,-6.8585891 -10.23093,-8.0647879 -1.4665,-0.330765 -3.03379,-0.637647 -4.61333,-0.482681 z"
     id="path4113"
     inkscape:connector-curvature="0"
     style="fill:#c87137" />
  <path
     d="m 93.96714,20.81626 c -4.899529,0.282002 -3.047709,4.404571 -0.97288,6.053619 7.0621,6.604351 15.55224,13.116531 26.80126,16.833481 5.34141,1.85663 10.41413,-2.24855 9.03836,-5.59105 -0.69931,-5.113037 -1.29441,-11.67481 -8.47346,-14.842423 -4.51882,-1.283589 -8.22627,1.938059 -10.95274,3.760886 -4.23541,-2.751247 -8.79814,-6.392114 -15.44054,-6.214513 z"
     id="path4115"
     inkscape:connector-curvature="0"
     style="fill:#c87137" />
  <path
     d="M 116.65745,220.71088 C 98.62792,218.6143 87.793231,215.05437 75.604194,207.22227 65.318234,200.61302 59.827829,194.46051 56.041859,185.3011 c -4.701757,-11.37479 -3.494232,-27.33221 3.153284,-41.67296 3.415197,-7.36757 10.593164,-18.01293 14.909084,-22.11116 1.674206,-1.58968 3.04392,-3.14321 3.04392,-3.45225 0,-0.30905 1.066226,-1.38059 2.369357,-2.38116 3.233023,-2.48233 5.875941,-5.9064 5.144436,-6.66492 10.1534,-9.45682 -2.83413,-4.26997 -5.561607,-4.26997 -4.268016,0 -5.912681,3.72039 -8.895357,5.92422 -3.172992,2.34445 -4.465555,2.29518 -11.622332,2.51534 -7.758432,0.2387 -11.562378,1.33599 -11.562378,3.33532 0,2.07919 -4.756189,2.95323 -16.503049,3.03272 -10.768308,0.0728 -11.650151,-0.0174 -14.00585,-1.43582 C 10.00967,114.20625 5.0295307,98.26945 6.1609328,84.9984 7.1859838,72.97401 11.775264,60.94703 17.426752,55.47423 l 2.506941,-2.42761 15.049681,0 c 14.091513,0 15.188067,0.0887 17.223206,1.3929 2.470988,1.58351 7.821599,2.39973 15.998608,2.44052 4.281874,0.0214 6.045862,0.33039 7.413366,1.29874 3.937413,2.78816 6.172802,2.43294 16.091402,-2.5571 3.314064,-1.6673 9.301984,-4.41929 13.306484,-6.11555 4.00449,-1.69626 7.2809,-3.44165 7.2809,-3.87865 0,-0.43701 -1.46873,-1.51752 -3.26385,-2.40115 C 102.77151,40.14392 92.83905,33.38941 89.032291,29.624576 81.668032,22.34146 82.033785,19.36233 90.618724,16.703011 96.34021,14.930724 101.60255,14.118714 111.48831,13.48274 l 6.72293,-0.432501 1.12709,-3.4793361 c 1.2737,-3.9316258 4.05943,-5.7861298 9.71262,-6.4657698 4.74665,-0.570657 15.37938,1.345514 20.4006,3.67652 4.74624,2.2033208 5.93499,2.2754788 9.32598,0.5661067 4.68077,-2.3594707 13.11005,-4.4872037 17.79262,-4.4912267 5.66857,-0.0051 10.16113,1.692027 13.52762,5.1095537 2.09118,2.1228232 3.28254,2.6654592 6.59811,3.0052272 2.22545,0.228044 5.1603,0.97625 6.52208,1.662668 6.67715,3.365885 -0.41606,14.050406 -16.9158,25.480028 -3.21786,2.22905 -5.66986,4.40025 -5.44903,4.82488 0.22084,0.42462 3.28987,1.81814 6.82005,3.0967 10.1764,3.68571 11.67938,5.81661 8.93774,12.67183 l -1.3425,3.35671 3.15329,2.08788 c 4.01534,2.65875 6.24129,6.06981 5.52595,8.46809 -0.3293,1.10373 -2.58718,3.11436 -5.4897,4.88845 l -4.93033,3.0136 1.69942,2.28367 c 2.25788,3.03438 1.26607,5.32342 -3.58934,8.28338 -3.5566,2.16814 -3.8168,2.56321 -3.30362,5.01523 0.50966,2.43519 0.25518,2.83445 -2.9908,4.69213 l -3.54776,2.03045 2.60245,2.6226 c 1.43128,1.44243 3.64497,3.36246 4.91928,4.26674 1.27431,0.90429 2.31684,1.86579 2.31684,2.13667 0,0.27087 1.96865,2.57185 4.37476,5.11339 20.4954,21.64848 26.23597,49.28657 14.65631,70.56449 -9.31222,17.1116 -30.65863,29.34485 -57.3687,32.87685 -10.85628,1.43562 -25.83486,1.55951 -36.63902,0.30313 z m 40.32958,-4.82096 c 20.50323,-4.18014 34.88377,-12.39999 44.12419,-25.22122 5.75131,-7.98012 7.67448,-13.79262 8.30033,-25.08696 0.88988,-16.05828 -3.28554,-28.17285 -14.94132,-43.3509 -6.10832,-7.95425 -16.92956,-17.51767 -20.46506,-18.08633 -3.0155,-0.48502 -7.61503,0.95999 -9.08938,2.85561 -2.06507,2.65503 -2.89951,2.84539 -7.01187,1.59944 -4.98526,-1.51043 -8.0809,-5.40679 -11.91367,-14.99517 -2.84286,-7.11196 -5.38063,-10.30979 -8.18192,-10.30979 -1.97629,0 -3.22931,2.35344 -4.02258,7.55482 -0.88224,5.78562 -1.65,6.65569 -3.91692,4.43861 -1.56515,-1.5308 -1.68546,-2.8334 -1.09415,-11.84439 0.74466,-11.34925 0.0994,-13.22652 -3.58863,-10.44622 -5.96964,4.4999 -9.74818,12.95035 -10.50359,23.49045 -0.62766,8.75748 -2.41525,13.19527 -6.38821,15.85948 -1.5081,1.01137 -3.03207,1.83882 -3.38657,1.83882 -1.01823,0 -0.75029,-5.2497 0.39437,-7.72715 1.87315,-4.05414 5.88588,-17.60417 5.3713,-18.13776 -1.17479,-1.2182 -2.57734,-0.25496 -6.03431,4.14427 -3.30965,4.21166 -7.34177,8.83661 -19.778256,22.686 -11.450001,12.75087 -22.374973,30.30017 -24.839835,39.9016 -1.69148,6.58864 -1.478175,20.98173 0.391562,26.4198 3.485595,10.1381 8.378664,16.56992 17.307764,22.75055 9.450313,6.54134 21.078165,10.56291 36.585595,12.65343 10.22399,1.37828 33.74814,0.83427 42.68116,-0.98699 z M 64.264762,108.394 c 0.512776,-1.53706 -0.192618,-5.5954 -2.220927,-12.77699 -1.634839,-5.78845 -2.972417,-12.49605 -2.972417,-14.90576 0,-5.56516 2.740332,-11.24803 7.44932,-15.44847 2.012843,-1.79551 3.393102,-3.54103 3.067219,-3.87892 -0.325883,-0.33789 -5.661832,-0.61435 -11.857832,-0.61435 l -11.265317,0 -2.698856,2.66734 c -4.380393,4.32924 -6.220503,11.00186 -6.186057,22.43205 0.03716,12.18683 2.363833,21.2665 6.05711,23.63333 2.177945,1.39573 3.062097,1.50152 11.121105,1.33027 l 8.755062,-0.18599 z M 91.483897,97.45118 c 7.258003,-1.43663 8.460513,-2.08809 9.397793,-5.09125 0.58558,-1.87632 0.17213,-2.36238 -4.32707,-5.08725 -2.73601,-1.657 -5.276597,-3.5305 -5.645864,-4.16333 -0.871198,-1.49317 1.456584,-2.08262 4.331184,-1.09673 3.54374,1.21539 6.2202,0.22369 11.44297,-4.23992 9.02852,-7.71615 18.1177,-11.08542 27.47813,-10.18588 2.36796,0.22756 9.14492,2.01137 15.06003,3.96404 12.4161,4.09875 16.74789,4.54255 20.76032,2.12692 4.48042,-2.69739 2.94851,-6.23982 -4.63206,-10.71134 -12.60832,-7.43722 -30.28937,-12.49412 -43.68483,-12.49412 -10.17218,0 -23.0657,4.35155 -34.869506,11.76846 -5.490806,3.45014 -7.323586,4.21068 -10.884802,4.51679 -6.104812,0.52474 -8.270906,2.41773 -9.671351,8.45207 -2.033431,8.76134 -0.913276,14.98626 3.458681,19.21995 4.49518,4.35304 10.707047,5.21458 21.786375,3.02159 z m 86.893933,-0.12667 c 1.84493,-1.18232 1.43398,-3.60896 -0.73743,-4.35366 -1.06834,-0.36641 -5.59716,-0.66621 -10.06412,-0.66621 -7.68502,0 -8.18303,0.0864 -9.26372,1.60633 -0.94371,1.32726 -0.82561,1.83037 0.67928,2.89608 1.53863,1.08952 3.09132,1.28976 10.00115,1.28976 5.02302,0 8.6448,-0.29805 9.38484,-0.7723 z m 6.78871,-8.52802 c 1.92999,-1.88762 1.18784,-3.87187 -1.93913,-5.18488 -1.2258,-0.51471 -6.72755,-1.2579 -12.22599,-1.65153 -12.19035,-0.87268 -15.83451,-0.29536 -15.3364,2.42962 0.55646,3.04399 10.90408,5.81428 22.13736,5.92667 5.04713,0.0505 5.94875,-0.13558 7.36416,-1.51988 z m -0.56228,-10.78633 c 7.91941,-1.49566 13.05541,-4.76436 13.05541,-8.30887 0,-1.86464 -2.76835,-3.78692 -5.42804,-3.76906 -5.73846,0.0385 -16.93358,5.06103 -20.22043,9.07151 -1.08581,1.32496 -1.12176,1.89301 -0.16821,2.66116 2.25507,1.81672 4.62975,1.88097 12.76127,0.34526 z M 180.76175,60.0144 c 6.63395,-2.26595 9.86808,-4.45743 9.86808,-6.68682 0,-1.86741 -2.50021,-3.49883 -5.36206,-3.49883 -4.55282,0 -17.73598,6.93776 -17.73598,9.33372 0,3.42815 4.78541,3.7363 13.22996,0.85193 z m -15.3131,-4.04697 c 3.25622,-1.07909 5.33474,-3.97456 7.18911,-10.01479 1.036,-3.37455 2.04689,-4.68304 5.44833,-7.05203 4.86405,-3.3876 8.76731,-7.025249 13.89126,-12.945951 4.55393,-5.262106 4.76493,-6.674424 0.91207,-6.105954 -3.79872,0.560476 -9.67577,4.865781 -12.40726,9.089087 -1.25021,1.932949 -2.56931,3.514455 -2.93134,3.514455 -0.36204,0 -1.17298,-0.724021 -1.80215,-1.608934 -2.44578,-3.439897 -12.0375,-0.715513 -13.85943,3.936557 -0.3304,0.8436 -0.94491,1.53382 -1.3656,1.53382 -1.05477,0 -3.28876,-5.325799 -3.42483,-8.164521 -0.10957,-2.285312 -0.0111,-2.347153 4.90954,-3.079463 2.76172,-0.411018 6.61246,-1.236486 8.55732,-1.834366 4.3353,-1.332791 15.57842,-7.092155 16.34548,-8.373074 1.07104,-1.788697 -2.65176,-5.2057671 -7.32821,-6.7263531 -5.76436,-1.8743508 -8.27944,-1.4898288 -14.09412,2.1548541 -5.80173,3.636535 -8.27573,3.674254 -20.55103,0.313285 -5.10427,-1.3975271 -10.42997,-2.7258642 -11.83504,-2.9518492 -3.60631,-0.580047 -6.30998,1.3865101 -7.21221,5.2459662 -0.40412,1.728614 -1.25533,3.355711 -1.89153,3.615767 -0.6362,0.260055 -4.5463,0.481528 -8.68888,0.492165 -8.40387,0.02156 -12.40023,0.960626 -12.8638,3.022727 -0.30008,1.334798 0,1.377506 9.08074,1.27104 10.01702,-0.117511 11.82419,0.274639 17.22974,3.738715 4.05792,2.600496 9.12242,1.857059 15.17481,-2.227571 4.41142,-2.977161 9.43936,-4.839607 10.7676,-3.988473 2.67054,1.711443 -9.05855,8.462903 -17.49004,10.067494 -2.79667,0.532235 -5.70461,1.297317 -6.46213,1.700188 -3.45366,1.836818 0.17193,12.546159 5.69598,16.825119 5.59404,4.3332 9.74386,2.49303 8.52107,-3.77858 -1.05086,-5.38998 0.83354,-4.1266 4.37075,2.93039 4.65566,9.28823 8.9291,11.78123 16.1138,9.40028 z M 126.83404,41.89892 c 2.70037,-2.64108 -0.43374,-14.078064 -4.64511,-16.950831 -3.08198,-2.102363 -5.5839,-1.883386 -9.59111,0.839473 l -3.45165,2.345344 -3.03398,-2.35877 C 101.27466,22.01316 93.25532,20.128202 91.877969,22.428362 90.785131,24.253383 96.5489,29.97403 105.10993,35.56148 c 11.68038,7.62325 18.40402,9.58469 21.72411,6.33744 z"
     id="path4117"
     inkscape:connector-curvature="0"
     sodipodi:nodetypes="sssscsscssssscsccsssssssssssccsscccscsssscscsccsscccssssssssssscsssccscscsssssssssscsscsscscssccssscssssssssssssscsccsssssscssssccssssssssssscsscsssccssssssssssscscssssssscssss"
     style="fill:#2b0000" />
  <g
     transform="matrix(1.4619977,0,0,1.2283932,87.880039,114.5515)"
     id="layer1">
    <g
       transform="matrix(1.952512,0,0,2.199032,-241.3166,-4.159922)"
       id="g11444">
      <g
         transform="matrix(1.639056,0,0,1.53403,-102.6584,-12.37374)"
         id="g11434">
        <path
           inkscape:connector-curvature="0"
           d="m 173.76376,23.437057 c -0.10937,3e-6 -0.34759,-0.02529 -0.71465,-0.07589 -0.0312,0.589785 -0.0469,1.622894 -0.0469,3.09933 0,0.156251 -0.0508,0.288133 -0.15234,0.395648 -0.10157,0.107514 -0.22861,0.161272 -0.38114,0.161272 -0.15625,0 -0.28516,-0.05376 -0.38672,-0.161272 -0.10156,-0.107515 -0.15234,-0.239397 -0.15234,-0.395648 l 0,-1.72247 c 0,-0.574154 0.0352,-1.382809 0.10565,-2.425967 0.0781,-1.128715 0.12103,-1.937246 0.12872,-2.425595 l 0,-0.80878 c 0,-0.386649 0.0234,-0.667898 0.0703,-0.84375 0.09,-0.343741 0.28149,-0.492179 0.5744,-0.445313 0.125,-0.03893 0.3027,-0.06819 0.53311,-0.0878 0.2304,-0.01958 0.51364,-0.02938 0.8497,-0.02939 0.71478,9e-6 1.38467,0.24418 2.00967,0.732515 0.6875,0.539194 1.03125,1.187631 1.03125,1.945312 0,0.968756 -0.36719,1.740208 -1.10156,2.31436 -0.65625,0.515629 -1.44531,0.773441 -2.36719,0.773438 l 0,0 z m 0.29316,-4.652158 c -0.17188,8e-6 -0.32521,0.0039 -0.46001,0.01172 -0.1348,0.0078 -0.24907,0.01954 -0.34282,0.03516 l -0.0119,1.078125 -0.12277,2.331845 0.64434,0.07626 c 0.65625,5e-6 1.20895,-0.166042 1.65812,-0.49814 0.4923,-0.36309 0.73846,-0.853292 0.73846,-1.47061 0,-0.437493 -0.23438,-0.814477 -0.70312,-1.130952 -0.43354,-0.288931 -0.9003,-0.4334 -1.4003,-0.433408 l 0,0 z"
           transform="translate(-23.52409,-3.643135)"
           id="flowRoot9654"
           style="font-style:normal;font-variant:normal;font-weight:normal;font-stretch:normal;font-size:12px;line-height:125%;font-family:'Comic Sans MS';text-align:start;writing-mode:lr-tb;text-anchor:start;fill:#963200;fill-opacity:1" />
        <path
           inkscape:connector-curvature="0"
           d="m 149.77344,15.175524 c -0.24207,1.199159 -0.75082,2.15712 -1.52623,2.873884 -0.77543,0.716766 -1.69042,1.075149 -2.74498,1.075149 -0.96106,0 -1.6818,-0.268539 -2.1622,-0.805618 -0.48041,-0.537077 -0.72061,-1.342694 -0.72061,-2.416852 0,-1.011653 0.23921,-2.053629 0.71763,-3.12593 0.47842,-1.07229 1.09264,-1.938547 1.84264,-2.598773 0.49999,-0.4414589 1.02938,-0.6621928 1.58817,-0.662202 0.3554,9.2e-6 0.82415,0.1171966 1.40625,0.3515625 0.7108,0.2812585 1.06621,0.5918985 1.06622,0.9319195 -1e-5,0.159978 -0.0586,0.302463 -0.17578,0.427456 -0.1172,0.125007 -0.25776,0.187507 -0.42169,0.1875 -0.0861,7e-6 -0.20723,-0.04873 -0.36347,-0.146206 -0.59772,-0.363335 -1.10157,-0.545007 -1.51153,-0.545015 -0.29316,8e-6 -0.59983,0.15229 -0.92002,0.456846 -0.16022,0.152537 -0.39075,0.429942 -0.69159,0.832217 -0.90228,1.195194 -1.35342,2.492067 -1.35342,3.890625 0,0.734377 0.11334,1.248017 0.34003,1.540922 0.24603,0.320438 0.69915,0.480656 1.35937,0.480655 0.69915,1e-6 1.30655,-0.220733 1.82217,-0.662202 0.54291,-0.468748 0.92175,-1.138639 1.13654,-2.009673 -1.08185,0.05457 -2.00956,0.26352 -2.78311,0.62686 -0.0898,0.04291 -0.17771,0.06436 -0.26377,0.06436 -0.17188,3e-6 -0.31436,-0.06634 -0.42745,-0.199032 -0.10566,-0.121277 -0.15849,-0.261902 -0.15849,-0.421875 0,-0.215027 0.10355,-0.386901 0.31064,-0.515625 0.84375,-0.515621 2.29886,-0.773433 4.36533,-0.773438 0.1679,5e-6 0.30853,0.05661 0.42188,0.169829 0.11333,0.113224 0.17,0.255771 0.17001,0.427641 -1e-5,0.253972 -0.10752,0.435644 -0.32254,0.545015 l 0,0 z"
           id="text2469"
           style="font-style:normal;font-variant:normal;font-weight:normal;font-stretch:normal;font-size:12px;line-height:125%;font-family:'Comic Sans MS';text-align:start;writing-mode:lr-tb;text-anchor:start;fill:#963200;fill-opacity:1" />
      </g>
      <path
         inkscape:connector-curvature="0"
         d="m 212.22768,21.743309 c -0.23368,0.0078 -0.40504,0.01168 -0.51408,0.01168 -0.16753,1e-6 -0.39929,-0.0039 -0.69527,-0.01168 -0.0623,0.06813 -0.13826,0.148428 -0.22784,0.240907 -0.0896,0.09248 -0.17426,0.178162 -0.25407,0.257041 -0.0798,0.07888 -0.14846,0.146078 -0.20595,0.20159 -0.0575,0.05551 -0.10472,0.101754 -0.14169,0.138721 -0.21611,0.210306 -0.35678,0.347574 -0.422,0.411803 -0.0652,0.06423 -0.13387,0.122153 -0.20595,0.173772 -0.0721,0.05162 -0.13829,0.07743 -0.19862,0.07743 -0.0681,-10e-7 -0.10219,-0.03116 -0.10219,-0.09347 0,-0.06812 0.0487,-0.173277 0.14605,-0.315459 0.0974,-0.142183 0.20737,-0.267798 0.33002,-0.376846 0.12265,-0.109047 0.22291,-0.163571 0.30081,-0.163571 0.0214,0 0.0515,0.0098 0.0905,0.0293 l 0.55507,-0.592901 c -0.0701,-0.0098 -0.16163,-0.0161 -0.27457,-0.01901 -0.11294,-0.0029 -0.18889,-0.01119 -0.22783,-0.02485 -0.0389,-0.01366 -0.0584,-0.04677 -0.0584,-0.09931 0,-0.0837 0.0896,-0.215126 0.26872,-0.394278 0.0973,-0.0994 0.1888,-0.162735 0.27448,-0.189999 0.0857,-0.02726 0.24925,-0.04182 0.49071,-0.04367 -0.14206,0.01941 -0.24279,0.04225 -0.3022,0.06853 -0.0594,0.02627 -0.092,0.06575 -0.0978,0.118413 0.0564,2e-6 0.10842,2e-6 0.15615,0 0.0477,2e-6 0.11003,-4.92e-4 0.18694,-0.0015 0.0769,-9.88e-4 0.1339,-0.0025 0.17099,-0.0045 0.31935,-0.311563 0.60949,-0.582729 0.87043,-0.8135 0.26094,-0.230765 0.53597,-0.449819 0.82509,-0.657161 0.28912,-0.207336 0.59726,-0.397675 0.92441,-0.571017 0.0643,0.08371 0.0964,0.171302 0.0964,0.26279 0,0.07604 -0.0248,0.163699 -0.0745,0.262976 -0.0496,0.09928 -0.1548,0.285728 -0.31546,0.559333 -0.16067,0.273611 -0.32377,0.564219 -0.48932,0.871826 0.0545,2e-6 0.0998,4.96e-4 0.13584,0.0015 0.036,9.91e-4 0.0745,0.0025 0.11545,0.0045 0.11102,2e-6 0.17868,0.0019 0.20298,0.0058 0.0243,0.0039 0.0364,0.02334 0.0364,0.05833 0,0.01558 -0.0151,0.04334 -0.0453,0.08327 -0.0302,0.03994 -0.0832,0.106144 -0.15912,0.198623 -0.0759,0.09248 -0.14991,0.186446 -0.22199,0.281892 l -0.42933,0.03505 c -0.22786,0.428403 -0.34179,0.669866 -0.34179,0.724389 0,0.07987 0.0419,0.119804 0.12555,0.119804 0.0409,0 0.21037,-0.08568 0.50833,-0.257041 l -0.0234,0.154855 c -0.15974,0.12067 -0.28391,0.215561 -0.37249,0.284674 -0.0886,0.06911 -0.16549,0.126573 -0.23071,0.172381 -0.0652,0.04581 -0.12462,0.0799 -0.17822,0.102278 -0.0536,0.02238 -0.10766,0.03357 -0.16218,0.03357 -0.0642,0 -0.12741,-0.0297 -0.18972,-0.08911 -0.0623,-0.05941 -0.0935,-0.143635 -0.0935,-0.252683 0,-0.04476 0.0165,-0.108522 0.0496,-0.191298 0.0331,-0.08277 0.0686,-0.162118 0.10654,-0.238031 0.038,-0.07591 0.1339,-0.257968 0.28783,-0.546167 l 0,0 z m -0.5521,-0.663188 0.94638,-0.01743 c 0.11102,-0.188915 0.20109,-0.341792 0.27021,-0.458631 0.0691,-0.116834 0.14505,-0.243902 0.22783,-0.381203 0.0828,-0.137296 0.15383,-0.253638 0.21318,-0.349027 0.0593,-0.09538 0.12505,-0.203472 0.19714,-0.324269 -0.14021,0.08766 -0.28332,0.185057 -0.42933,0.292185 -0.14602,0.107134 -0.31055,0.236149 -0.49359,0.387045 -0.18305,0.150902 -0.34566,0.291106 -0.48784,0.420613 -0.14218,0.129512 -0.29018,0.273085 -0.44398,0.43072 l 0,0 z m 3.18965,0.914295 0,0.216241 c -0.40702,0.539304 -0.73805,0.808956 -0.99312,0.808956 -0.13822,0 -0.24678,-0.07545 -0.32566,-0.226348 -0.0789,-0.150899 -0.11832,-0.348996 -0.11832,-0.594292 0,-0.198683 0.0467,-0.434829 0.14021,-0.708439 0.0935,-0.273607 0.21859,-0.551079 0.37536,-0.832417 0.15677,-0.281333 0.31935,-0.52669 0.48775,-0.736072 0.16839,-0.209376 0.32467,-0.355916 0.46883,-0.439622 0.0583,-0.03499 0.1041,-0.05248 0.13723,-0.05248 0.0409,4e-6 0.0682,0.01799 0.0818,0.05397 0.0136,0.03598 0.0204,0.0978 0.0204,0.185455 0,0.270644 -0.11001,0.603135 -0.33002,0.997472 -0.22001,0.394342 -0.52672,0.796934 -0.92013,1.207778 -0.0194,0.10126 -0.0291,0.179151 -0.0291,0.233674 0,0.124626 0.0268,0.225885 0.0803,0.303776 0.0535,0.07789 0.12803,0.116837 0.22348,0.116836 0.0487,1e-6 0.10128,-0.01898 0.15773,-0.05693 0.0564,-0.03796 0.11581,-0.08516 0.17813,-0.141596 0.0623,-0.05644 0.18403,-0.168423 0.36516,-0.335952 l 0,0 z m -0.87331,-0.525766 c 0.10126,-0.09928 0.19908,-0.212221 0.29348,-0.338827 0.0944,-0.126602 0.18348,-0.261953 0.26724,-0.406054 0.0838,-0.144097 0.14951,-0.273575 0.19723,-0.388437 0.0477,-0.114856 0.0716,-0.201525 0.0716,-0.260008 0,-0.04475 -0.0156,-0.06713 -0.0467,-0.06713 -0.0117,3e-6 -0.0342,0.0107 -0.0673,0.03208 -0.11869,0.09743 -0.25203,0.287798 -0.40002,0.57111 -0.148,0.283316 -0.25315,0.569071 -0.31546,0.857267 l 0,0 z m 2.2403,0.525766 0,0.216241 c -0.40702,0.539304 -0.73805,0.808956 -0.99312,0.808956 -0.13822,0 -0.24677,-0.07545 -0.32566,-0.226348 -0.0789,-0.150899 -0.11832,-0.348996 -0.11832,-0.594292 0,-0.198683 0.0467,-0.434829 0.14021,-0.708439 0.0935,-0.273607 0.21859,-0.551079 0.37536,-0.832417 0.15677,-0.281333 0.31935,-0.52669 0.48775,-0.736072 0.16839,-0.209376 0.32467,-0.355916 0.46883,-0.439622 0.0583,-0.03499 0.1041,-0.05248 0.13724,-0.05248 0.0409,4e-6 0.0682,0.01799 0.0818,0.05397 0.0136,0.03598 0.0204,0.0978 0.0204,0.185455 0,0.270644 -0.11001,0.603135 -0.33002,0.997472 -0.22001,0.394342 -0.52672,0.796934 -0.92013,1.207778 -0.0194,0.10126 -0.0291,0.179151 -0.0291,0.233674 0,0.124626 0.0268,0.225885 0.0803,0.303776 0.0535,0.07789 0.12803,0.116837 0.22348,0.116836 0.0487,1e-6 0.10129,-0.01898 0.15773,-0.05693 0.0564,-0.03796 0.11581,-0.08516 0.17813,-0.141596 0.0623,-0.05644 0.18403,-0.168423 0.36516,-0.335952 l 0,0 z m -0.87331,-0.525766 c 0.10126,-0.09928 0.19908,-0.212221 0.29348,-0.338827 0.0944,-0.126602 0.18348,-0.261953 0.26724,-0.406054 0.0838,-0.144097 0.14951,-0.273575 0.19723,-0.388437 0.0477,-0.114856 0.0716,-0.201525 0.0716,-0.260008 0,-0.04475 -0.0156,-0.06713 -0.0467,-0.06713 -0.0118,3e-6 -0.0342,0.0107 -0.0673,0.03208 -0.1187,0.09743 -0.25204,0.287798 -0.40003,0.57111 -0.148,0.283316 -0.25315,0.569071 -0.31546,0.857267 l 0,0 z m 1.31135,0.663003 0,0.07307 c 0,0.11486 0.0282,0.204435 0.0848,0.268725 0.0565,0.06429 0.13049,0.09644 0.22199,0.09644 0.0954,0 0.19429,-0.02241 0.29654,-0.06723 0.10225,-0.04482 0.204,-0.104225 0.30526,-0.178222 0.10126,-0.074 0.22489,-0.173307 0.37091,-0.297934 l 0,0.178222 c -0.22008,0.264831 -0.42649,0.467843 -0.61924,0.609036 -0.19275,0.141193 -0.38846,0.21179 -0.58715,0.21179 -0.17334,0 -0.31064,-0.0672 -0.41189,-0.20159 -0.10126,-0.134393 -0.15189,-0.318427 -0.15189,-0.552101 0,-0.204371 0.0477,-0.389826 0.14317,-0.556366 0.0954,-0.166537 0.25123,-0.342287 0.46735,-0.527249 0.14799,-0.126603 0.29503,-0.222019 0.4411,-0.286251 0.14608,-0.06423 0.27655,-0.09634 0.39141,-0.09634 0.0915,2e-6 0.164,0.02093 0.21754,0.06278 0.0535,0.04185 0.0803,0.10463 0.0803,0.18833 0,0.122773 -0.0457,0.244988 -0.13724,0.366645 -0.0915,0.12166 -0.2312,0.242391 -0.41913,0.362194 -0.18793,0.119806 -0.41919,0.235159 -0.69379,0.34606 l 0,0 z m 0.0293,-0.189721 c 0.17519,-0.06825 0.3251,-0.152999 0.44972,-0.254259 0.12463,-0.101257 0.21665,-0.198127 0.27606,-0.290609 0.0594,-0.09248 0.0891,-0.160108 0.0891,-0.202888 0,-0.04488 -0.0205,-0.06732 -0.0614,-0.06732 -0.035,2e-6 -0.0919,0.02241 -0.1708,0.06723 -0.0789,0.04482 -0.15872,0.103239 -0.23952,0.175256 -0.0808,0.07202 -0.15334,0.156711 -0.21763,0.254074 -0.0643,0.09736 -0.10614,0.203538 -0.12555,0.318519 l 0,0 z m 1.22678,0.309525 0,-0.189906 c 0.10509,-0.124625 0.1849,-0.230705 0.23943,-0.318242 -0.0623,-0.02151 -0.10757,-0.04785 -0.13576,-0.079 -0.0282,-0.03116 -0.0423,-0.07789 -0.0423,-0.140205 0,-0.0701 0.0292,-0.158686 0.0876,-0.265757 0.0584,-0.107068 0.13046,-0.207337 0.21614,-0.300809 0.0857,-0.09347 0.16358,-0.153864 0.23368,-0.18119 0.0272,-0.0136 0.0535,-0.0204 0.0788,-0.0204 0.0389,2e-6 0.0584,0.01849 0.0584,0.05545 0,0.03314 -0.0302,0.100334 -0.0905,0.20159 0.40108,-0.06231 0.65423,-0.09347 0.75944,-0.09347 0.0408,2e-6 0.069,0.0039 0.0846,0.01168 0.0331,0.01756 0.0604,0.05845 0.0819,0.122678 0.0215,0.06423 0.0322,0.128492 0.0322,0.192781 -1e-5,0.04093 -0.018,0.08525 -0.0541,0.132972 -0.036,0.04772 -0.0979,0.117332 -0.18554,0.208822 -0.10324,0.111027 -0.18991,0.231759 -0.26001,0.362195 -0.0701,0.130437 -0.10516,0.22879 -0.10515,0.295059 -1e-5,0.09149 0.0565,0.137238 0.1695,0.137237 0.11882,1e-6 0.32523,-0.120731 0.61924,-0.362194 l 0,0.195655 c -0.1616,0.169383 -0.29497,0.302756 -0.40012,0.40012 -0.10516,0.09736 -0.20252,0.174792 -0.2921,0.232283 -0.0896,0.05749 -0.16941,0.08624 -0.23951,0.08624 -0.0819,0 -0.15004,-0.03749 -0.20456,-0.112479 -0.0545,-0.07499 -0.0818,-0.18357 -0.0818,-0.325752 0,-0.0837 0.0214,-0.179119 0.0643,-0.286251 0.0428,-0.10713 0.10564,-0.223472 0.18842,-0.349027 0.0828,-0.125552 0.17578,-0.250641 0.27902,-0.375269 -0.0545,0.01162 -0.11588,0.02377 -0.18407,0.03644 -0.0682,0.01268 -0.14023,0.02581 -0.21615,0.03941 -0.0759,0.0136 -0.13433,0.0243 -0.17525,0.03208 -0.1208,0.241464 -0.29605,0.460549 -0.52577,0.657254 l 0,0 z m 4.79903,-0.219023 c -0.17136,0.194729 -0.3247,0.360248 -0.46002,0.496557 -0.13532,0.13631 -0.24533,0.238063 -0.33002,0.30526 -0.0847,0.0672 -0.14261,0.100795 -0.17377,0.100795 -0.0507,0 -0.10769,-0.04089 -0.17099,-0.122679 -0.0633,-0.08179 -0.11733,-0.185981 -0.16209,-0.312585 -0.0448,-0.126604 -0.0671,-0.255124 -0.0671,-0.385562 0,-0.188916 0.0915,-0.379286 0.27456,-0.57111 0.18305,-0.191821 0.39141,-0.351003 0.62508,-0.477547 0.23367,-0.12654 0.40893,-0.189812 0.52577,-0.189814 0.0954,2e-6 0.18891,0.06034 0.28041,0.181005 0.14996,-0.313418 0.29261,-0.591848 0.42793,-0.835291 0.13532,-0.243438 0.24873,-0.424535 0.34022,-0.543292 0.0915,-0.11875 0.15671,-0.178126 0.19566,-0.17813 0.0429,4e-6 0.0824,0.02093 0.11841,0.06278 0.036,0.04185 0.0541,0.08905 0.0541,0.141595 0,0.101262 -0.074,0.275064 -0.22199,0.521408 -0.148,0.246349 -0.29404,0.486359 -0.43814,0.72003 -0.1441,0.233676 -0.26777,0.463949 -0.371,0.690822 -0.10324,0.226874 -0.15486,0.436686 -0.15486,0.629435 0,0.175194 0.0565,0.262791 0.16951,0.26279 0.0681,10e-7 0.15377,-0.03845 0.25695,-0.115353 0.10317,-0.0769 0.25021,-0.205916 0.4411,-0.387045 l 0,0.213274 c -0.42061,0.54326 -0.74485,0.81489 -0.97271,0.81489 -0.0915,0 -0.15721,-0.03505 -0.19714,-0.105153 -0.0399,-0.0701 -0.0599,-0.174266 -0.0599,-0.312492 0,-0.186939 0.0234,-0.388467 0.0701,-0.604585 l 0,0 z m 0.21624,-0.712705 c -0.17334,0.05836 -0.37684,0.152292 -0.61052,0.2818 -0.23367,0.129511 -0.37486,0.218622 -0.42358,0.267334 -0.0428,0.03895 -0.0807,0.111954 -0.11387,0.219023 -0.0331,0.10707 -0.0497,0.187867 -0.0497,0.24239 0,0.03313 0.01,0.06043 0.0292,0.08188 0.0195,0.02145 0.0438,0.03218 0.073,0.03218 0.0273,0 0.0585,-0.01168 0.0936,-0.03505 0.0351,-0.02337 0.091,-0.06914 0.16793,-0.13733 0.0769,-0.06818 0.12704,-0.111983 0.1504,-0.131395 0.0331,-0.0293 0.10667,-0.09214 0.2206,-0.188515 0.11393,-0.09637 0.19717,-0.171824 0.24972,-0.226349 0.0525,-0.05452 0.0973,-0.115383 0.13436,-0.182581 0.037,-0.06719 0.0633,-0.141655 0.0789,-0.223381 l 0,0 z m 1.41651,0.811924 0,0.07307 c 0,0.11486 0.0283,0.204435 0.0848,0.268725 0.0565,0.06429 0.1305,0.09644 0.22199,0.09644 0.0954,0 0.1943,-0.02241 0.29655,-0.06723 0.10224,-0.04482 0.204,-0.104225 0.30526,-0.178222 0.10125,-0.074 0.22489,-0.173307 0.37091,-0.297934 l 0,0.178222 c -0.22008,0.264831 -0.42649,0.467843 -0.61924,0.609036 -0.19275,0.141193 -0.38847,0.21179 -0.58715,0.21179 -0.17334,0 -0.31064,-0.0672 -0.4119,-0.20159 -0.10126,-0.134393 -0.15189,-0.318427 -0.15189,-0.552101 0,-0.204371 0.0477,-0.389826 0.14318,-0.556366 0.0954,-0.166537 0.25123,-0.342287 0.46734,-0.527249 0.148,-0.126603 0.29503,-0.222019 0.44111,-0.286251 0.14608,-0.06423 0.27654,-0.09634 0.3914,-0.09634 0.0915,2e-6 0.16401,0.02093 0.21754,0.06278 0.0535,0.04185 0.0803,0.10463 0.0803,0.18833 0,0.122773 -0.0457,0.244988 -0.13723,0.366645 -0.0915,0.12166 -0.23121,0.242391 -0.41913,0.362194 -0.18793,0.119806 -0.41919,0.235159 -0.69379,0.34606 l 0,0 z m 0.0293,-0.189721 c 0.17519,-0.06825 0.3251,-0.152999 0.44973,-0.254259 0.12463,-0.101257 0.21664,-0.198127 0.27605,-0.290609 0.0594,-0.09248 0.0891,-0.160108 0.0891,-0.202888 0,-0.04488 -0.0205,-0.06732 -0.0614,-0.06732 -0.035,2e-6 -0.0919,0.02241 -0.17081,0.06723 -0.0789,0.04482 -0.15872,0.103239 -0.23951,0.175256 -0.0808,0.07202 -0.15334,0.156711 -0.21763,0.254074 -0.0643,0.09736 -0.10615,0.203538 -0.12556,0.318519 l 0,0 z m 4.33465,0.05248 0,0.216241 c -0.40701,0.539304 -0.73805,0.808956 -0.99311,0.808956 -0.13823,0 -0.24678,-0.07545 -0.32566,-0.226348 -0.0789,-0.150899 -0.11832,-0.348996 -0.11832,-0.594292 0,-0.198683 0.0467,-0.434829 0.1402,-0.708439 0.0935,-0.273607 0.21859,-0.551079 0.37536,-0.832417 0.15677,-0.281333 0.31936,-0.52669 0.48775,-0.736072 0.16839,-0.209376 0.32467,-0.355916 0.46883,-0.439622 0.0584,-0.03499 0.1041,-0.05248 0.13724,-0.05248 0.0409,4e-6 0.0682,0.01799 0.0818,0.05397 0.0136,0.03598 0.0204,0.0978 0.0204,0.185455 0,0.270644 -0.11,0.603135 -0.33001,0.997472 -0.22002,0.394342 -0.52673,0.796934 -0.92014,1.207778 -0.0194,0.10126 -0.0291,0.179151 -0.0291,0.233674 0,0.124626 0.0268,0.225885 0.0803,0.303776 0.0535,0.07789 0.12802,0.116837 0.22347,0.116836 0.0487,1e-6 0.10129,-0.01898 0.15773,-0.05693 0.0564,-0.03796 0.11582,-0.08516 0.17813,-0.141596 0.0623,-0.05644 0.18403,-0.168423 0.36516,-0.335952 l 0,0 z m -0.87331,-0.525766 c 0.10126,-0.09928 0.19909,-0.212221 0.29348,-0.338827 0.0944,-0.126602 0.18348,-0.261953 0.26725,-0.406054 0.0838,-0.144097 0.1495,-0.273575 0.19723,-0.388437 0.0477,-0.114856 0.0716,-0.201525 0.0716,-0.260008 0,-0.04475 -0.0156,-0.06713 -0.0467,-0.06713 -0.0118,3e-6 -0.0342,0.0107 -0.0673,0.03208 -0.11869,0.09743 -0.25204,0.287798 -0.40003,0.57111 -0.14799,0.283316 -0.25315,0.569071 -0.31546,0.857267 l 0,0 z m 1.58602,-1.472145 0,-0.692304 0.43229,0 0,0.692304 -0.0731,0.785775 -0.26872,0 -0.0905,-0.785775 z m 0.90836,1.507196 c 0.29598,-0.268661 0.58322,-0.468242 0.86171,-0.598742 0.27849,-0.130497 0.49365,-0.195746 0.64548,-0.195749 0.0409,3e-6 0.0789,0.01703 0.11396,0.05109 0.035,0.03406 0.0628,0.07351 0.0833,0.118321 0.0205,0.04482 0.0307,0.07792 0.0307,0.09931 -1e-5,0.03512 -0.0136,0.06092 -0.0409,0.07743 -0.0273,0.01651 -0.075,0.03644 -0.14326,0.05981 0.0137,0.03116 0.0313,0.07109 0.0527,0.119804 0.0214,0.04872 0.0379,0.08816 0.0496,0.118321 0.0117,0.03017 0.0175,0.05694 0.0175,0.0803 0,0.04674 -0.0472,0.133869 -0.14169,0.261399 -0.0945,0.127533 -0.16066,0.221497 -0.19862,0.281893 -0.038,0.0604 -0.0569,0.134425 -0.0569,0.222082 0,0.144038 0.0662,0.216056 0.19862,0.216056 0.13637,0 0.34958,-0.127531 0.63964,-0.382595 l 0,0.178223 c -0.49258,0.547094 -0.845,0.82064 -1.05729,0.82064 -0.0759,0 -0.12994,-0.02482 -0.16208,-0.07446 -0.0322,-0.04964 -0.0482,-0.123112 -0.0482,-0.220414 0,-0.153928 0.0555,-0.376907 0.16654,-0.668938 -0.28437,0.315399 -0.49566,0.5398 -0.63389,0.673203 -0.13823,0.133405 -0.25216,0.200107 -0.34179,0.200107 -0.0428,0 -0.0963,-0.037 -0.16061,-0.110995 -0.0643,-0.074 -0.12125,-0.169908 -0.17089,-0.287734 -0.0496,-0.117826 -0.0745,-0.239979 -0.0745,-0.36646 0,-0.09161 0.009,-0.168083 0.0263,-0.229408 0.0175,-0.06132 0.0515,-0.1241 0.10218,-0.18833 0.0506,-0.06423 0.13146,-0.14895 0.24249,-0.254167 l 0,0 z m 1.39907,-0.321209 c -0.50629,0.231698 -0.867,0.428342 -1.08213,0.589934 -0.21513,0.161594 -0.32269,0.328071 -0.32269,0.499431 0,0.06231 0.0107,0.113438 0.0321,0.153372 0.0214,0.03993 0.0506,0.0599 0.0875,0.0599 0.0215,0 0.0595,-0.0136 0.11405,-0.0408 0.20437,-0.120793 0.39128,-0.278059 0.56072,-0.471799 0.16945,-0.193738 0.37292,-0.457084 0.61043,-0.79004 l 0,0 z m 1.07212,0.849942 -0.0527,0.245358 c -0.008,0.03116 -0.0117,0.06621 -0.0117,0.105153 0,0.105092 0.0438,0.157638 0.13149,0.157637 0.0837,1e-6 0.28721,-0.163571 0.61052,-0.490715 0.002,-0.126479 0.0491,-0.272494 0.1416,-0.438045 0.0925,-0.165549 0.19478,-0.310636 0.30674,-0.435264 0.11195,-0.124624 0.19519,-0.186937 0.24972,-0.186939 0.0857,2e-6 0.12851,0.0565 0.12852,0.169506 -1e-5,0.06813 -0.0166,0.151364 -0.0497,0.249716 -0.0331,0.09835 -0.0818,0.204466 -0.14604,0.318334 -0.0642,0.113871 -0.14308,0.231202 -0.23655,0.351994 0.0487,0.08766 0.0984,0.131489 0.14892,0.131488 0.0429,1e-6 0.0901,-0.01511 0.14169,-0.04534 0.0515,-0.03023 0.11628,-0.0765 0.19417,-0.138813 l 0,0.195841 c -0.10905,0.08568 -0.19519,0.144099 -0.25843,0.175255 -0.0632,0.03116 -0.14457,0.04673 -0.24397,0.04673 -0.0389,0 -0.10905,-0.02633 -0.21031,-0.079 -0.19856,0.210307 -0.36015,0.367573 -0.48478,0.471798 -0.12462,0.104226 -0.22588,0.156339 -0.30377,0.156339 -0.1344,0 -0.24882,-0.08033 -0.34328,-0.240999 -0.0945,-0.160666 -0.14169,-0.337374 -0.14169,-0.530124 0,-0.259019 0.14608,-0.569656 0.43823,-0.931913 0.0877,-0.109046 0.15826,-0.183507 0.21179,-0.223381 0.0535,-0.03987 0.11437,-0.05981 0.18249,-0.05981 0.0585,2e-6 0.11399,0.0107 0.16654,0.03208 0.0525,0.02139 0.0788,0.04668 0.0788,0.07585 0,0.09743 -0.0652,0.240105 -0.19566,0.428031 -0.13043,0.187929 -0.28133,0.351006 -0.45269,0.489231 l 0,0 z m 1.8985,-0.528733 c 0.29599,-0.268661 0.58323,-0.468242 0.86172,-0.598742 0.27849,-0.130497 0.49365,-0.195746 0.64548,-0.195749 0.0409,3e-6 0.0789,0.01703 0.11396,0.05109 0.035,0.03406 0.0628,0.07351 0.0833,0.118321 0.0205,0.04482 0.0307,0.07792 0.0307,0.09931 -1e-5,0.03512 -0.0136,0.06092 -0.0409,0.07743 -0.0273,0.01651 -0.075,0.03644 -0.14326,0.05981 0.0137,0.03116 0.0313,0.07109 0.0527,0.119804 0.0214,0.04872 0.0379,0.08816 0.0496,0.118321 0.0117,0.03017 0.0175,0.05694 0.0175,0.0803 0,0.04674 -0.0472,0.133869 -0.14169,0.261399 -0.0945,0.127533 -0.16066,0.221497 -0.19862,0.281893 -0.038,0.0604 -0.0569,0.134425 -0.0569,0.222082 0,0.144038 0.0662,0.216056 0.19862,0.216056 0.13637,0 0.34958,-0.127531 0.63964,-0.382595 l 0,0.178223 c -0.49258,0.547094 -0.845,0.82064 -1.05729,0.82064 -0.0759,0 -0.12994,-0.02482 -0.16208,-0.07446 -0.0321,-0.04964 -0.0482,-0.123112 -0.0482,-0.220414 0,-0.153928 0.0555,-0.376907 0.16654,-0.668938 -0.28437,0.315399 -0.49566,0.5398 -0.63389,0.673203 -0.13823,0.133405 -0.25216,0.200107 -0.34179,0.200107 -0.0428,0 -0.0963,-0.037 -0.16061,-0.110995 -0.0643,-0.074 -0.12126,-0.169908 -0.1709,-0.287734 -0.0496,-0.117826 -0.0745,-0.239979 -0.0745,-0.36646 0,-0.09161 0.009,-0.168083 0.0263,-0.229408 0.0175,-0.06132 0.0515,-0.1241 0.10218,-0.18833 0.0506,-0.06423 0.13146,-0.14895 0.24248,-0.254167 l 0,0 z m 1.39908,-0.321209 c -0.50629,0.231698 -0.867,0.428342 -1.08213,0.589934 -0.21513,0.161594 -0.32269,0.328071 -0.32269,0.499431 0,0.06231 0.0107,0.113438 0.0321,0.153372 0.0214,0.03993 0.0506,0.0599 0.0875,0.0599 0.0215,0 0.0595,-0.0136 0.11406,-0.0408 0.20437,-0.120793 0.39128,-0.278059 0.56072,-0.471799 0.16945,-0.193738 0.37292,-0.457084 0.61043,-0.79004 l 0,0 z m 2.65813,0.31546 c -0.34272,0.381668 -0.51408,0.647426 -0.51408,0.797273 0,0.08383 0.0341,0.125739 0.10218,0.125738 0.0565,1e-6 0.13004,-0.0297 0.2206,-0.08911 0.0906,-0.05941 0.23222,-0.165085 0.42497,-0.317036 l 0,0.20159 c -0.27657,0.27262 -0.48886,0.469295 -0.63685,0.590026 -0.14799,0.120732 -0.26872,0.181097 -0.36219,0.181098 -0.15962,-1e-6 -0.23943,-0.105154 -0.23943,-0.31546 0,-0.06231 0.01,-0.123637 0.0292,-0.183972 0.0195,-0.06033 0.0462,-0.123142 0.0803,-0.188422 0.0341,-0.06528 0.0861,-0.158749 0.15624,-0.280409 0.0701,-0.121658 0.1509,-0.259451 0.24239,-0.41338 -0.1109,0.0565 -0.25012,0.168518 -0.41764,0.336045 -0.10905,0.105092 -0.20153,0.204867 -0.27744,0.299325 -0.0759,0.09446 -0.15721,0.199612 -0.24388,0.31546 -0.0867,0.115848 -0.14997,0.193739 -0.18991,0.233673 -0.0399,0.03993 -0.0804,0.0599 -0.12128,0.0599 -0.0623,0 -0.11975,-0.06525 -0.17229,-0.195749 -0.0525,-0.130498 -0.0788,-0.282355 -0.0788,-0.455571 0,-0.107192 0.0122,-0.190956 0.0365,-0.251292 0.0243,-0.06033 0.0725,-0.146014 0.14447,-0.257041 0.13439,-0.206348 0.25027,-0.357742 0.34763,-0.45418 0.0974,-0.09643 0.19086,-0.144653 0.2805,-0.144655 0.0623,2e-6 0.11245,0.01073 0.15041,0.03218 0.038,0.02145 0.0569,0.05456 0.0569,0.09931 0,0.01954 -0.006,0.04 -0.0175,0.06138 -0.0117,0.02139 -0.0248,0.04086 -0.0394,0.05842 -0.0146,0.01756 -0.0453,0.05162 -0.092,0.102186 -0.30773,0.340744 -0.4616,0.561745 -0.4616,0.663003 0,0.0565 0.0185,0.08475 0.0555,0.08475 0.0234,10e-7 0.0686,-0.03749 0.13585,-0.112479 0.0672,-0.07498 0.15386,-0.173307 0.26001,-0.294967 0.10614,-0.121657 0.23175,-0.248694 0.37684,-0.38111 0.14509,-0.132414 0.31011,-0.260007 0.49508,-0.38278 0.10323,-0.07195 0.18891,-0.107933 0.25704,-0.107935 0.0311,2e-6 0.0618,0.04284 0.092,0.12852 0.0302,0.08568 0.0453,0.17229 0.0453,0.259823 0,0.0429 -0.0419,0.108184 -0.12555,0.195841 l 0,0 z m 1.24144,-0.987364 0.12555,0 c 0.10324,-0.184958 0.19671,-0.31589 0.28041,-0.392795 0.0837,-0.0769 0.17909,-0.11535 0.28616,-0.115353 0.10719,3e-6 0.16079,0.0243 0.16079,0.07288 0,0.02337 -0.0419,0.08667 -0.12565,0.189906 -0.0838,0.10324 -0.14704,0.189909 -0.18981,0.260009 0.0661,0.0078 0.12502,0.01459 0.17664,0.0204 0.0516,0.0058 0.092,0.0107 0.1212,0.01465 -0.11103,0.206352 -0.25024,0.417647 -0.41765,0.633886 -0.0545,-0.004 -0.1003,-0.0074 -0.13733,-0.01029 -0.037,-0.0029 -0.0745,-0.0058 -0.11247,-0.0087 -0.038,-0.0029 -0.0842,-0.0063 -0.13872,-0.01029 -0.1051,0.169384 -0.19319,0.320778 -0.26428,0.45418 -0.0711,0.133406 -0.12561,0.255621 -0.16357,0.366646 -0.038,0.111026 -0.0569,0.21618 -0.0569,0.315459 0,0.134394 0.0535,0.201591 0.16061,0.20159 0.0739,1e-6 0.1708,-0.03944 0.29061,-0.11832 0.1198,-0.07888 0.27997,-0.200106 0.48051,-0.363678 l 0,0.195655 c -0.52583,0.570585 -0.91429,0.855876 -1.1654,0.855877 -0.0877,-1e-6 -0.15825,-0.03409 -0.21179,-0.102279 -0.0535,-0.06819 -0.0803,-0.155813 -0.0803,-0.262883 0,-0.07208 0.0151,-0.15776 0.0453,-0.257041 0.0302,-0.09928 0.0842,-0.24919 0.16209,-0.449729 -0.0273,0.02337 -0.0531,0.04624 -0.0774,0.06862 -0.0243,0.02238 -0.0467,0.04281 -0.0671,0.06129 -0.0205,0.01849 -0.0424,0.03796 -0.0658,0.05842 -0.0234,0.02046 -0.0467,0.04139 -0.0701,0.06278 l 0,-0.20159 c 0.20449,-0.171359 0.45177,-0.472168 0.74182,-0.902426 -0.0292,-0.002 -0.0564,-0.0035 -0.0817,-0.0045 -0.0253,-9.88e-4 -0.0555,-0.0015 -0.0906,-0.0015 -0.11486,2e-6 -0.20054,0.0078 -0.25704,0.02337 -0.0234,0.0058 -0.0453,0.01215 -0.0657,0.01901 -0.0205,0.0069 -0.0346,0.01029 -0.0424,0.01029 -0.008,2e-6 -0.0117,-0.0059 -0.0117,-0.01762 0,-0.06429 0.0399,-0.160664 0.1198,-0.289125 0.0643,-0.109046 0.12515,-0.189873 0.18258,-0.242483 0.0574,-0.0526 0.12753,-0.08815 0.21031,-0.106637 0.0828,-0.01848 0.19915,-0.02772 0.34912,-0.02773 l 0,0 z"
         transform="matrix(1.006013,0,0,1,-86.407,7.424176)"
         id="flowRoot9675"
         style="font-style:italic;font-variant:normal;font-weight:normal;font-stretch:normal;font-size:5.98204803px;line-height:125%;font-family:'Brush Script MT';text-align:start;writing-mode:lr-tb;text-anchor:start;fill:#323296;fill-opacity:1" />
    </g>
  </g>
</svg>
